<?xml version="1.0"?>
<!DOCTYPE svg PUBLIC "-//W3C//DTD SVG 1.1//EN" "http://www.w3.org/Graphics/SVG/1.1/DTD/svg11.dtd">
<!--Phoronix Test Suite v6.6.0 [ http://www.phoronix-test-suite.com/ ]-->
<svg xmlns="http://www.w3.org/2000/svg" xmlns:xlink="http://www.w3.org/1999/xlink" version="1.1" font-family="sans-serif, droid-sans, helvetica, verdana, tahoma" viewbox="0 0 1150 168" width="1150" height="168" preserveAspectRatio="xMinYMin meet"><rect x="0" y="0" width="1150" height="168" fill="#FEFEFE" stroke="#757575" stroke-width="2"/><rect x="1" y="1" width="1149" height="167" fill="#FEFEFE" stroke="#757575" stroke-width="1"/><path d="m74 22v9m-5-16v16m-5-28v28m-23-2h12.5c2.485281 0 4.5-2.014719 4.5-4.5s-2.014719-4.5-4.5-4.5h-8c-2.485281 0-4.5-2.014719-4.5-4.5s2.014719-4.5 4.5-4.5h12.5m-21 5h-11m11 13h-2c-4.970563 0-9-4.029437-9-9v-20m-24 40v-20c0-4.970563 4.0294373-9 9-9 4.970563 0 9 4.029437 9 9s-4.029437 9-9 9h-9" stroke="#000000" stroke-width="4" fill="none" transform="translate(31,43)"/><line x1="142" y1="96" x2="1150" y2="96" stroke="#BABABA" stroke-width="112" stroke-dasharray="168,168"/><line x1="575" y1="88" x2="575" y2="152" stroke="#949494" stroke-width="1150" stroke-dasharray="16,16"/><line x1="142" y1="96" x2="1150" y2="96" stroke="#757575" stroke-width="112" stroke-dasharray="1,167"/><rect x="1" y="1" width="1148" height="40" fill="#231f20"/><text x="5" y="19" font-size="17" fill="#FEFEFE" text-anchor="start">Flexible IO Tester</text><text x="5" y="33" font-size="11" fill="#FEFEFE" text-anchor="start">Type: Sequential Write - IO Engine: POSIX AIO - Buffered: Yes - Direct: Yes - Block Size: 4MB - Disk Target: /mnt/mdadm_raid - Result: IOPS</text><line x1="1" y1="40" x2="1149" y2="40" stroke="#757575" stroke-width="1"/><g font-size="10" font-weight="bold" text-anchor="end" fill="#065695"><text x="140" y="100" fill="#065695">Results</text><text x="140" y="116" fill="#065695">Difference</text><text x="140" y="132" fill="#065695">Standard Error</text><text x="140" y="148" fill="#065695">Standard Deviation</text></g><g font-size="10" fill="#065695" font-weight="bold" text-anchor="middle" dominant-baseline="text-before-edge"><text x="226" y="64">MDADM RAID0</text><text x="394" y="64">MDADM RAID1</text><text x="562" y="64">MDADM RAID5</text><text x="730" y="64">Stripe (RAID0)</text><text x="898" y="64">zfs-raid1-4mb-seqwrite</text><text x="1066" y="64">RAID-Z (RAID5)</text></g><g/><g text-anchor="middle" font-size="10"><text x="226" y="101" fill="#065695" xlink:title="STD Dev: 1.17%;  STD Error: 0.67">99</text><text x="226" y="117" fill="#065695">1.94x</text><text x="226" y="133" fill="#065695">0.67</text><text x="226" y="149" fill="#065695">1.17%</text><text x="394" y="101" fill="#005a00" xlink:title="STD Dev: 44.47%;  STD Error: 20.06">111</text><text x="394" y="117" fill="#065695">2.18x</text><text x="394" y="133" fill="#065695">20.06</text><text x="394" y="149" fill="#065695">44.47%</text><text x="562" y="101" fill="#C80000" xlink:title="STD Dev: 3.01%;  STD Error: 0.88">51</text><text x="562" y="117" fill="#065695">1.00x</text><text x="562" y="133" fill="#065695">0.88</text><text x="562" y="149" fill="#065695">3.01%</text></g><line x1="575" y1="88" x2="575" y2="152" stroke="#949494" stroke-width="1150" stroke-dasharray="1,15"/><rect x="0" y="152" width="1150" height="16" fill="#231f20"/><a xlink:href="http://www.phoronix-test-suite.com/" xlink:show="new"><text x="1148" y="165" font-size="10" fill="#FFFFFF" text-anchor="end" xlink:show="new">PHORONIX-TEST-SUITE.COM</text></a></svg>
