<?xml version="1.0"?>
<!DOCTYPE svg PUBLIC "-//W3C//DTD SVG 1.1//EN" "http://www.w3.org/Graphics/SVG/1.1/DTD/svg11.dtd">
<!--Phoronix Test Suite v6.6.0 [ http://www.phoronix-test-suite.com/ ]-->
<svg xmlns="http://www.w3.org/2000/svg" xmlns:xlink="http://www.w3.org/1999/xlink" version="1.1" font-family="sans-serif, droid-sans, helvetica, verdana, tahoma" viewbox="0 0 600 274" width="600" height="274" preserveAspectRatio="xMinYMin meet"><rect x="0" y="0" width="600" height="274" fill="#FEFEFE" stroke="#757575" stroke-width="2"/><g stroke="#757575" stroke-width="1"><line x1="152.5" y1="64" x2="152.5" y2="203"/><line x1="152" y1="202.5" x2="586" y2="202.5"/></g><a xlink:href="http://www.phoronix-test-suite.com/" xlink:show="new"><text x="585" y="59" font-size="7" fill="#065695" text-anchor="end" xlink:show="new">PHORONIX-TEST-SUITE.COM</text></a><polygon points="161.5,56 152.5,60.5 152.5,51.5" fill="#065695" stroke="#949494" stroke-width="1"/><text x="164" y="59" font-size="7" fill="#065695" text-anchor="start">IOPS, More Is Better</text><rect x="0" y="0" width="600" height="48" fill="#231f20"/><a xlink:href="http://openbenchmarking.org/test/pts/fio-1.8.2" xlink:show="new"><text x="6" y="19" font-size="17" fill="#FEFEFE" text-anchor="start" xlink:show="new">Flexible IO Tester v2.1.13</text></a><text x="6" y="36" font-size="6" fill="#FEFEFE" text-anchor="start">Type: Sequential Write - IO Engine: POSIX AIO - Buffered: Yes - Direct: Yes - Block Size: 4MB - Disk Target: Default Test Directory - Result: IOPS</text><path d="m74 22v9m-5-16v16m-5-28v28m-23-2h12.5c2.485281 0 4.5-2.014719 4.5-4.5s-2.014719-4.5-4.5-4.5h-8c-2.485281 0-4.5-2.014719-4.5-4.5s2.014719-4.5 4.5-4.5h12.5m-21 5h-11m11 13h-2c-4.970563 0-9-4.029437-9-9v-20m-24 40v-20c0-4.970563 4.0294373-9 9-9 4.970563 0 9 4.029437 9 9s-4.029437 9-9 9h-9" stroke="#ffffff" stroke-width="4" fill="none" transform="translate(508,4)"/><line x1="152.5" y1="110" x2="152.5" y2="158" stroke="#757575" stroke-width="11" stroke-dasharray="1,45"/><g font-size="10" fill="#231f20"><text x="147" y="85" text-anchor="end">Stripe (RAID0)</text><text x="147" y="131" text-anchor="end">zfs-raid1-4mb-seqwrite</text><text x="147" y="177" text-anchor="end">RAID-Z (RAID5)</text></g><g font-size="10" fill="#065695" text-anchor="middle"><text x="226.5" y="217">20</text><text x="298.5" y="217">40</text><text x="370.5" y="217">60</text><text x="442.5" y="217">80</text><text x="514.5" y="217">100</text></g><g stroke="#BABABA" stroke-width="1"><line x1="226.5" y1="64" x2="226.5" y2="197" stroke-dasharray="5,5"/><line x1="226.5" y1="198" x2="226.5" y2="207"/><line x1="298.5" y1="64" x2="298.5" y2="197" stroke-dasharray="5,5"/><line x1="298.5" y1="198" x2="298.5" y2="207"/><line x1="370.5" y1="64" x2="370.5" y2="197" stroke-dasharray="5,5"/><line x1="370.5" y1="198" x2="370.5" y2="207"/><line x1="442.5" y1="64" x2="442.5" y2="197" stroke-dasharray="5,5"/><line x1="442.5" y1="198" x2="442.5" y2="207"/><line x1="514.5" y1="64" x2="514.5" y2="197" stroke-dasharray="5,5"/><line x1="514.5" y1="198" x2="514.5" y2="207"/></g><g stroke="#949494" stroke-width="1"><rect x="152.5" y="70.5" height="34" width="289" fill="#2196f3" xlink:title="Stripe (RAID0): 80"/><rect x="152.5" y="116.5" height="34" width="112" fill="#2196f3" xlink:title="zfs-raid1-4mb-seqwrite: 31"/><rect x="152.5" y="162.5" height="34" width="220" fill="#2196f3" xlink:title="RAID-Z (RAID5): 61"/></g><g font-size="8" fill="#065695" text-anchor="end"><text y="101" x="147">SE +/- 0.00</text><text y="147" x="147">SE +/- 0.00</text><text y="193" x="147">SE +/- 0.00</text></g><g font-size="10" fill="#FFFFFF"><text x="436" y="93" text-anchor="end">80</text><text x="259" y="139" text-anchor="end">31</text><text x="367" y="185" text-anchor="end">61</text></g><rect x="0" y="224" width="600" height="50" fill="#231f20"/><a xlink:href="http://www.phoronix-test-suite.com/" xlink:show="new"><text x="585" y="236" font-size="9" fill="#FEFEFE" text-anchor="end" xlink:show="new">Phoronix Test Suite 6.6.0</text></a><text x="5" y="250" font-size="8" fill="#FEFEFE" text-anchor="start" xlink:title="-rdynamic -std=gnu99 -O3 -ffast-math -include -lrt -laio -lz -lm -lpthread -ldl" width="595">1. (CC) gcc options: -rdynamic -std=gnu99 -O3 -ffast-math -include -lrt -laio -lz -lm -lpthread -ldl</text></svg>
