<?xml version="1.0"?>
<!DOCTYPE svg PUBLIC "-//W3C//DTD SVG 1.1//EN" "http://www.w3.org/Graphics/SVG/1.1/DTD/svg11.dtd">
<!--Phoronix Test Suite v6.6.0 [ http://www.phoronix-test-suite.com/ ]-->
<svg xmlns="http://www.w3.org/2000/svg" xmlns:xlink="http://www.w3.org/1999/xlink" version="1.1" font-family="sans-serif, droid-sans, helvetica, verdana, tahoma" viewbox="0 0 752 136" width="752" height="136" preserveAspectRatio="xMinYMin meet"><rect x="0" y="0" width="752" height="136" fill="#FEFEFE" stroke="#757575" stroke-width="2"/><rect x="1" y="1" width="751" height="135" fill="#FEFEFE" stroke="#757575" stroke-width="1"/><path d="m74 22v9m-5-16v16m-5-28v28m-23-2h12.5c2.485281 0 4.5-2.014719 4.5-4.5s-2.014719-4.5-4.5-4.5h-8c-2.485281 0-4.5-2.014719-4.5-4.5s2.014719-4.5 4.5-4.5h12.5m-21 5h-11m11 13h-2c-4.970563 0-9-4.029437-9-9v-20m-24 40v-20c0-4.970563 4.0294373-9 9-9 4.970563 0 9 4.029437 9 9s-4.029437 9-9 9h-9" stroke="#000000" stroke-width="4" fill="none" transform="translate(3,43)"/><line x1="86" y1="80" x2="752" y2="80" stroke="#BABABA" stroke-width="80" stroke-dasharray="111,111"/><line x1="376" y1="88" x2="376" y2="120" stroke="#949494" stroke-width="752" stroke-dasharray="16,16"/><line x1="86" y1="80" x2="752" y2="80" stroke="#757575" stroke-width="80" stroke-dasharray="1,110"/><rect x="1" y="1" width="750" height="40" fill="#231f20"/><text x="5" y="19" font-size="17" fill="#FEFEFE" text-anchor="start">Flexible IO Tester</text><text x="5" y="33" font-size="11" fill="#FEFEFE" text-anchor="start">Type: Sequential Write - IO Engine: POSIX AIO - Buffered: Yes - Direct: Yes - Block Size: 4MB - Disk Target: Default Test Directory - Result: IOPS</text><line x1="1" y1="40" x2="751" y2="40" stroke="#757575" stroke-width="1"/><g font-size="10" font-weight="bold" text-anchor="end" fill="#065695"><text x="84" y="100" fill="#065695">Results</text><text x="84" y="116" fill="#065695">Difference</text></g><g font-size="10" fill="#065695" font-weight="bold" text-anchor="middle" dominant-baseline="text-before-edge"><text x="141.5" y="64">MDADM RAID0</text><text x="252.5" y="64">MDADM RAID1</text><text x="363.5" y="64">MDADM RAID5</text><text x="474.5" y="64">Stripe (RAID0)</text><text x="585.5" y="64">Mirror (RAID1)</text><text x="696.5" y="64">RAID-Z (RAID5)</text></g><g/><g text-anchor="middle" font-size="10"><text x="474.5" y="101" fill="#005a00">80</text><text x="474.5" y="117" fill="#065695">2.58x</text><text x="585.5" y="101" fill="#C80000">31</text><text x="585.5" y="117" fill="#065695">1.00x</text><text x="696.5" y="101" fill="#065695">61</text><text x="696.5" y="117" fill="#065695">1.97x</text></g><line x1="376" y1="88" x2="376" y2="120" stroke="#949494" stroke-width="752" stroke-dasharray="1,15"/><rect x="0" y="120" width="752" height="16" fill="#231f20"/><a xlink:href="http://www.phoronix-test-suite.com/" xlink:show="new"><text x="750" y="133" font-size="10" fill="#FFFFFF" text-anchor="end" xlink:show="new">PHORONIX-TEST-SUITE.COM</text></a></svg>
