<?xml version="1.0"?>
<!DOCTYPE svg PUBLIC "-//W3C//DTD SVG 1.1//EN" "http://www.w3.org/Graphics/SVG/1.1/DTD/svg11.dtd">
<!--Phoronix Test Suite v6.6.0 [ http://www.phoronix-test-suite.com/ ]-->
<svg xmlns="http://www.w3.org/2000/svg" xmlns:xlink="http://www.w3.org/1999/xlink" version="1.1" font-family="sans-serif, droid-sans, helvetica, verdana, tahoma" viewbox="0 0 2108 121" width="2108" height="121" preserveAspectRatio="xMinYMin meet"><rect x="0" y="0" width="2108" height="121" fill="#FEFEFE" stroke="#757575" stroke-width="2"/><rect x="1" y="1" width="2107" height="120" fill="#FEFEFE" stroke="#757575" stroke-width="1"/><path d="m74 22v9m-5-16v16m-5-28v28m-23-2h12.5c2.485281 0 4.5-2.014719 4.5-4.5s-2.014719-4.5-4.5-4.5h-8c-2.485281 0-4.5-2.014719-4.5-4.5s2.014719-4.5 4.5-4.5h12.5m-21 5h-11m11 13h-2c-4.970563 0-9-4.029437-9-9v-20m-24 40v-20c0-4.970563 4.0294373-9 9-9 4.970563 0 9 4.029437 9 9s-4.029437 9-9 9h-9" stroke="#000000" stroke-width="4" fill="none" transform="translate(510,28)"/><line x1="1100" y1="65" x2="2108" y2="65" stroke="#BABABA" stroke-width="80" stroke-dasharray="168,168"/><line x1="1054" y1="73" x2="1054" y2="105" stroke="#949494" stroke-width="2108" stroke-dasharray="16,16"/><line x1="1100" y1="65" x2="2108" y2="65" stroke="#757575" stroke-width="80" stroke-dasharray="1,167"/><rect x="1" y="1" width="2106" height="25" fill="#231f20"/><text x="5" y="19" font-size="17" fill="#FEFEFE" text-anchor="start">mdadm-raid0-xfs-4mb-seqwrite</text><line x1="1" y1="25" x2="2107" y2="25" stroke="#757575" stroke-width="1"/><g font-size="10" font-weight="bold" text-anchor="end" fill="#065695"><a xlink:href="http://openbenchmarking.org/test/pts/fio-1.8.2" xlink:show="new"><text x="1098" y="85" fill="#065695">fio: Type: Sequential Write - IO Engine: POSIX AIO - Buffered: Yes - Direct: Yes - Block Size: 4MB - Disk Target: /mnt/mdadm_raid - Result: IOPS</text></a><a xlink:href="http://openbenchmarking.org/test/pts/fio-1.8.2" xlink:show="new"><text x="1098" y="101" fill="#065695">fio: Type: Sequential Write - IO Engine: POSIX AIO - Buffered: Yes - Direct: Yes - Block Size: 4MB - Disk Target: Default Test Directory - Result: IOPS</text></a></g><g font-size="10" fill="#065695" font-weight="bold" text-anchor="middle" dominant-baseline="text-before-edge"><text x="1184" y="49">MDADM RAID0</text><text x="1352" y="49">MDADM RAID1</text><text x="1520" y="49">MDADM RAID5</text><text x="1688" y="49">Stripe (RAID0)</text><text x="1856" y="49">zfs-raid1-4mb-seqwrite</text><text x="2024" y="49">RAID-Z (RAID5)</text></g><g/><g text-anchor="middle" font-size="10"><text x="1184" y="86" fill="#065695" xlink:title="STD Dev: 1.17%;  STD Error: 0.67">99</text><text x="1352" y="86" fill="#005a00" xlink:title="STD Dev: 44.47%;  STD Error: 20.06">111</text><text x="1520" y="86" fill="#C80000" xlink:title="STD Dev: 3.01%;  STD Error: 0.88">51</text><text x="1688" y="102" fill="#005a00">80</text><text x="1856" y="102" fill="#C80000">31</text><text x="2024" y="102" fill="#065695">61</text></g><line x1="1054" y1="73" x2="1054" y2="105" stroke="#949494" stroke-width="2108" stroke-dasharray="1,15"/><rect x="0" y="105" width="2108" height="16" fill="#231f20"/><a xlink:href="http://www.phoronix-test-suite.com/" xlink:show="new"><text x="2106" y="118" font-size="10" fill="#FFFFFF" text-anchor="end" xlink:show="new">PHORONIX-TEST-SUITE.COM</text></a></svg>
