<?xml version="1.0"?>
<!DOCTYPE svg PUBLIC "-//W3C//DTD SVG 1.1//EN" "http://www.w3.org/Graphics/SVG/1.1/DTD/svg11.dtd">
<!--Phoronix Test Suite v6.6.0 [ http://www.phoronix-test-suite.com/ ]-->
<svg xmlns="http://www.w3.org/2000/svg" xmlns:xlink="http://www.w3.org/1999/xlink" version="1.1" font-family="sans-serif, droid-sans, helvetica, verdana, tahoma" viewbox="0 0 1126 153" width="1126" height="153" preserveAspectRatio="xMinYMin meet"><rect x="0" y="0" width="1126" height="153" fill="#FEFEFE" stroke="#757575" stroke-width="2"/><rect x="1" y="1" width="1125" height="152" fill="#FEFEFE" stroke="#757575" stroke-width="1"/><path d="m74 22v9m-5-16v16m-5-28v28m-23-2h12.5c2.485281 0 4.5-2.014719 4.5-4.5s-2.014719-4.5-4.5-4.5h-8c-2.485281 0-4.5-2.014719-4.5-4.5s2.014719-4.5 4.5-4.5h12.5m-21 5h-11m11 13h-2c-4.970563 0-9-4.029437-9-9v-20m-24 40v-20c0-4.970563 4.0294373-9 9-9 4.970563 0 9 4.029437 9 9s-4.029437 9-9 9h-9" stroke="#000000" stroke-width="4" fill="none" transform="translate(103,28)"/><line x1="286" y1="81" x2="1126" y2="81" stroke="#BABABA" stroke-width="112" stroke-dasharray="140,140"/><line x1="563" y1="73" x2="563" y2="137" stroke="#949494" stroke-width="1126" stroke-dasharray="16,16"/><line x1="286" y1="81" x2="1126" y2="81" stroke="#757575" stroke-width="112" stroke-dasharray="1,139"/><rect x="1" y="1" width="1124" height="25" fill="#231f20"/><text x="5" y="19" font-size="17" fill="#FEFEFE" text-anchor="start">mdadm-xfs-raid0-postmark</text><line x1="1" y1="25" x2="1125" y2="25" stroke="#757575" stroke-width="1"/><g font-size="10" font-weight="bold" text-anchor="end" fill="#065695"><a xlink:href="http://openbenchmarking.org/test/pts/postmark-1.1.0" xlink:show="new"><text x="284" y="85" fill="#065695">postmark: Disk Transaction Performance</text></a><text x="284" y="101" fill="#065695">Difference</text><text x="284" y="117" fill="#065695">Standard Error</text><text x="284" y="133" fill="#065695">Standard Deviation</text></g><g font-size="10" fill="#065695" font-weight="bold" text-anchor="middle" dominant-baseline="text-before-edge"><text x="356" y="49">MDADM RAID0</text><text x="496" y="49">MDADM RAID1</text><text x="636" y="49">MDADM RAID5</text><text x="776" y="49">ZFS Stripe (RAID0)</text><text x="916" y="49">ZFS Mirror (RAID1)</text><text x="1056" y="49">ZFS RAID-Z (RAID5)</text></g><g/><g text-anchor="middle" font-size="10"><text x="356" y="86" fill="#065695" xlink:title="STD Dev: 0.70%;  STD Error: 12.00">2988</text><text x="356" y="102" fill="#065695">1.07x</text><text x="356" y="118" fill="#065695">12.00</text><text x="356" y="134" fill="#065695">0.70%</text><text x="496" y="86" fill="#065695" xlink:title="STD Dev: 1.45%;  STD Error: 26.00">3112</text><text x="496" y="102" fill="#065695">1.12x</text><text x="496" y="118" fill="#065695">26.00</text><text x="496" y="134" fill="#065695">1.45%</text><text x="636" y="86" fill="#C80000" xlink:title="STD Dev: 0.64%;  STD Error: 10.33">2787</text><text x="636" y="102" fill="#065695">1.00x</text><text x="636" y="118" fill="#065695">10.33</text><text x="636" y="134" fill="#065695">0.64%</text><text x="776" y="86" fill="#005a00" xlink:title="STD Dev: 0.81%;  STD Error: 16.33">3488</text><text x="776" y="102" fill="#065695">1.25x</text><text x="776" y="118" fill="#065695">16.33</text><text x="776" y="134" fill="#065695">0.81%</text><text x="916" y="86" fill="#065695" xlink:title="STD Dev: 0.73%;  STD Error: 13.00">3099</text><text x="916" y="102" fill="#065695">1.11x</text><text x="916" y="118" fill="#065695">13.00</text><text x="916" y="134" fill="#065695">0.73%</text><text x="1056" y="86" fill="#065695" xlink:title="STD Dev: 0.76%;  STD Error: 14.33">3260</text><text x="1056" y="102" fill="#065695">1.17x</text><text x="1056" y="118" fill="#065695">14.33</text><text x="1056" y="134" fill="#065695">0.76%</text></g><line x1="563" y1="73" x2="563" y2="137" stroke="#949494" stroke-width="1126" stroke-dasharray="1,15"/><rect x="0" y="137" width="1126" height="16" fill="#231f20"/><a xlink:href="http://www.phoronix-test-suite.com/" xlink:show="new"><text x="1124" y="150" font-size="10" fill="#FFFFFF" text-anchor="end" xlink:show="new">PHORONIX-TEST-SUITE.COM</text></a></svg>
