<?xml version="1.0"?>
<!DOCTYPE svg PUBLIC "-//W3C//DTD SVG 1.1//EN" "http://www.w3.org/Graphics/SVG/1.1/DTD/svg11.dtd">
<!--Phoronix Test Suite v6.6.0 [ http://www.phoronix-test-suite.com/ ]-->
<svg xmlns="http://www.w3.org/2000/svg" xmlns:xlink="http://www.w3.org/1999/xlink" version="1.1" font-family="sans-serif, droid-sans, helvetica, verdana, tahoma" viewbox="0 0 600 414" width="600" height="414" preserveAspectRatio="xMinYMin meet"><rect x="0" y="0" width="600" height="414" fill="#FEFEFE" stroke="#757575" stroke-width="2"/><g stroke="#757575" stroke-width="1"><line x1="126.5" y1="64" x2="126.5" y2="341"/><line x1="126" y1="340.5" x2="586" y2="340.5"/></g><a xlink:href="http://www.phoronix-test-suite.com/" xlink:show="new"><text x="585" y="59" font-size="7" fill="#065695" text-anchor="end" xlink:show="new">PHORONIX-TEST-SUITE.COM</text></a><polygon points="135.5,56 126.5,60.5 126.5,51.5" fill="#065695" stroke="#949494" stroke-width="1"/><text x="138" y="59" font-size="7" fill="#065695" text-anchor="start">Files/s, More Is Better</text><rect x="0" y="0" width="600" height="48" fill="#231f20"/><a xlink:href="http://openbenchmarking.org/test/pts/fs-mark-1.0.1" xlink:show="new"><text x="6" y="19" font-size="17" fill="#FEFEFE" text-anchor="start" xlink:show="new">FS-Mark v3.3</text></a><text x="6" y="36" font-size="11" fill="#FEFEFE" text-anchor="start">Test: 4000 Files, 32 Sub Dirs, 1MB Size</text><path d="m74 22v9m-5-16v16m-5-28v28m-23-2h12.5c2.485281 0 4.5-2.014719 4.5-4.5s-2.014719-4.5-4.5-4.5h-8c-2.485281 0-4.5-2.014719-4.5-4.5s2.014719-4.5 4.5-4.5h12.5m-21 5h-11m11 13h-2c-4.970563 0-9-4.029437-9-9v-20m-24 40v-20c0-4.970563 4.0294373-9 9-9 4.970563 0 9 4.029437 9 9s-4.029437 9-9 9h-9" stroke="#ffffff" stroke-width="4" fill="none" transform="translate(508,4)"/><line x1="126.5" y1="110" x2="126.5" y2="340" stroke="#757575" stroke-width="11" stroke-dasharray="1,45"/><g font-size="10" fill="#231f20"><text x="121" y="85" text-anchor="end">MDADM RAID0</text><text x="121" y="131" text-anchor="end">MDADM RAID1</text><text x="121" y="177" text-anchor="end">MDADM RAID5</text><text x="121" y="223" text-anchor="end">ZFS Stripe (RAID0)</text><text x="121" y="269" text-anchor="end">ZFS Mirror (RAID1)</text><text x="121" y="315" text-anchor="end">ZFS RAID-Z (RAID5)</text></g><g font-size="10" fill="#065695" text-anchor="middle"><text x="205.5" y="355">10</text><text x="282.5" y="355">20</text><text x="359.5" y="355">30</text><text x="436.5" y="355">40</text><text x="513.5" y="355">50</text></g><g stroke="#BABABA" stroke-width="1"><line x1="205.5" y1="64" x2="205.5" y2="335" stroke-dasharray="5,5"/><line x1="205.5" y1="336" x2="205.5" y2="345"/><line x1="282.5" y1="64" x2="282.5" y2="335" stroke-dasharray="5,5"/><line x1="282.5" y1="336" x2="282.5" y2="345"/><line x1="359.5" y1="64" x2="359.5" y2="335" stroke-dasharray="5,5"/><line x1="359.5" y1="336" x2="359.5" y2="345"/><line x1="436.5" y1="64" x2="436.5" y2="335" stroke-dasharray="5,5"/><line x1="436.5" y1="336" x2="436.5" y2="345"/><line x1="513.5" y1="64" x2="513.5" y2="335" stroke-dasharray="5,5"/><line x1="513.5" y1="336" x2="513.5" y2="345"/></g><g stroke="#949494" stroke-width="1"><rect x="126.5" y="70.5" height="34" width="200" fill="#2196f3" xlink:title="MDADM RAID0: 26.13"/><rect x="126.5" y="116.5" height="34" width="167" fill="#2196f3" xlink:title="MDADM RAID1: 21.82"/><rect x="126.5" y="162.5" height="34" width="94" fill="#2196f3" xlink:title="MDADM RAID5: 12.28"/><rect x="126.5" y="208.5" height="34" width="343" fill="#2196f3" xlink:title="ZFS Stripe (RAID0): 44.87"/><rect x="126.5" y="254.5" height="34" width="176" fill="#2196f3" xlink:title="ZFS Mirror (RAID1): 22.97"/><rect x="126.5" y="300.5" height="34" width="248" fill="#2196f3" xlink:title="ZFS RAID-Z (RAID5): 32.43"/></g><g font-size="8" fill="#065695" text-anchor="end"><text y="101" x="121">SE +/- 0.77</text><text y="147" x="121">SE +/- 1.26</text><text y="193" x="121">SE +/- 0.25</text><text y="239" x="121">SE +/- 0.09</text><text y="285" x="121">SE +/- 0.41</text><text y="331" x="121">SE +/- 0.13</text></g><g font-size="10" fill="#FFFFFF"><text x="321" y="93" text-anchor="end">26.13</text><text x="288" y="139" text-anchor="end">21.82</text><text x="215" y="185" text-anchor="end">12.28</text><text x="464" y="231" text-anchor="end">44.87</text><text x="297" y="277" text-anchor="end">22.97</text><text x="369" y="323" text-anchor="end">32.43</text></g><line x1="320.5" y1="70" x2="320.5" y2="78" stroke="#757575" stroke-width="1"/><line x1="332.5" y1="70" x2="332.5" y2="78" stroke="#757575" stroke-width="1"/><line x1="320.5" y1="70.5" x2="332.5" y2="70.5" stroke="#757575" stroke-width="1"/><line x1="283.5" y1="116" x2="283.5" y2="124" stroke="#757575" stroke-width="1"/><line x1="303.5" y1="116" x2="303.5" y2="124" stroke="#757575" stroke-width="1"/><line x1="283.5" y1="116.5" x2="303.5" y2="116.5" stroke="#757575" stroke-width="1"/><rect x="0" y="362" width="600" height="52" fill="#231f20"/><a xlink:href="http://www.phoronix-test-suite.com/" xlink:show="new"><text x="585" y="374" font-size="9" fill="#FEFEFE" text-anchor="end" xlink:show="new">Phoronix Test Suite 6.6.0</text></a><text x="5" y="388" font-size="8" fill="#FEFEFE" text-anchor="start" xlink:title="-static" width="595">1. (CC) gcc options: -static</text></svg>
