<?xml version="1.0"?>
<!DOCTYPE svg PUBLIC "-//W3C//DTD SVG 1.1//EN" "http://www.w3.org/Graphics/SVG/1.1/DTD/svg11.dtd">
<!--Phoronix Test Suite v6.6.0 [ http://www.phoronix-test-suite.com/ ]-->
<svg xmlns="http://www.w3.org/2000/svg" xmlns:xlink="http://www.w3.org/1999/xlink" version="1.1" font-family="sans-serif, droid-sans, helvetica, verdana, tahoma" viewbox="0 0 1198 153" width="1198" height="153" preserveAspectRatio="xMinYMin meet"><rect x="0" y="0" width="1198" height="153" fill="#FEFEFE" stroke="#757575" stroke-width="2"/><rect x="1" y="1" width="1197" height="152" fill="#FEFEFE" stroke="#757575" stroke-width="1"/><path d="m74 22v9m-5-16v16m-5-28v28m-23-2h12.5c2.485281 0 4.5-2.014719 4.5-4.5s-2.014719-4.5-4.5-4.5h-8c-2.485281 0-4.5-2.014719-4.5-4.5s2.014719-4.5 4.5-4.5h12.5m-21 5h-11m11 13h-2c-4.970563 0-9-4.029437-9-9v-20m-24 40v-20c0-4.970563 4.0294373-9 9-9 4.970563 0 9 4.029437 9 9s-4.029437 9-9 9h-9" stroke="#000000" stroke-width="4" fill="none" transform="translate(139,28)"/><line x1="358" y1="81" x2="1198" y2="81" stroke="#BABABA" stroke-width="112" stroke-dasharray="140,140"/><line x1="599" y1="73" x2="599" y2="137" stroke="#949494" stroke-width="1198" stroke-dasharray="16,16"/><line x1="358" y1="81" x2="1198" y2="81" stroke="#757575" stroke-width="112" stroke-dasharray="1,139"/><rect x="1" y="1" width="1196" height="25" fill="#231f20"/><text x="5" y="19" font-size="17" fill="#FEFEFE" text-anchor="start">mdadm-xfs-raid0-fmark4</text><line x1="1" y1="25" x2="1197" y2="25" stroke="#757575" stroke-width="1"/><g font-size="10" font-weight="bold" text-anchor="end" fill="#065695"><a xlink:href="http://openbenchmarking.org/test/pts/fs-mark-1.0.1" xlink:show="new"><text x="356" y="85" fill="#065695">fs-mark: Test: 4000 Files, 32 Sub Dirs, 1MB Size</text></a><text x="356" y="101" fill="#065695">Difference</text><text x="356" y="117" fill="#065695">Standard Error</text><text x="356" y="133" fill="#065695">Standard Deviation</text></g><g font-size="10" fill="#065695" font-weight="bold" text-anchor="middle" dominant-baseline="text-before-edge"><text x="428" y="49">MDADM RAID0</text><text x="568" y="49">MDADM RAID1</text><text x="708" y="49">MDADM RAID5</text><text x="848" y="49">ZFS Stripe (RAID0)</text><text x="988" y="49">ZFS Mirror (RAID1)</text><text x="1128" y="49">ZFS RAID-Z (RAID5)</text></g><g/><g text-anchor="middle" font-size="10"><text x="428" y="86" fill="#065695" xlink:title="STD Dev: 7.19%;  STD Error: 0.77">26.13</text><text x="428" y="102" fill="#065695">2.13x</text><text x="428" y="118" fill="#065695">0.77</text><text x="428" y="134" fill="#065695">7.19%</text><text x="568" y="86" fill="#065695" xlink:title="STD Dev: 14.10%;  STD Error: 1.26">21.82</text><text x="568" y="102" fill="#065695">1.78x</text><text x="568" y="118" fill="#065695">1.26</text><text x="568" y="134" fill="#065695">14.10%</text><text x="708" y="86" fill="#C80000" xlink:title="STD Dev: 5.03%;  STD Error: 0.25">12.28</text><text x="708" y="102" fill="#065695">1.00x</text><text x="708" y="118" fill="#065695">0.25</text><text x="708" y="134" fill="#065695">5.03%</text><text x="848" y="86" fill="#005a00" xlink:title="STD Dev: 0.34%;  STD Error: 0.09">44.87</text><text x="848" y="102" fill="#065695">3.65x</text><text x="848" y="118" fill="#065695">0.09</text><text x="848" y="134" fill="#065695">0.34%</text><text x="988" y="86" fill="#065695" xlink:title="STD Dev: 3.09%;  STD Error: 0.41">22.97</text><text x="988" y="102" fill="#065695">1.87x</text><text x="988" y="118" fill="#065695">0.41</text><text x="988" y="134" fill="#065695">3.09%</text><text x="1128" y="86" fill="#065695" xlink:title="STD Dev: 0.71%;  STD Error: 0.13">32.43</text><text x="1128" y="102" fill="#065695">2.64x</text><text x="1128" y="118" fill="#065695">0.13</text><text x="1128" y="134" fill="#065695">0.71%</text></g><line x1="599" y1="73" x2="599" y2="137" stroke="#949494" stroke-width="1198" stroke-dasharray="1,15"/><rect x="0" y="137" width="1198" height="16" fill="#231f20"/><a xlink:href="http://www.phoronix-test-suite.com/" xlink:show="new"><text x="1196" y="150" font-size="10" fill="#FFFFFF" text-anchor="end" xlink:show="new">PHORONIX-TEST-SUITE.COM</text></a></svg>
