<?xml version="1.0"?>
<!DOCTYPE svg PUBLIC "-//W3C//DTD SVG 1.1//EN" "http://www.w3.org/Graphics/SVG/1.1/DTD/svg11.dtd">
<!--Phoronix Test Suite v6.6.0 [ http://www.phoronix-test-suite.com/ ]-->
<svg xmlns="http://www.w3.org/2000/svg" xmlns:xlink="http://www.w3.org/1999/xlink" version="1.1" font-family="sans-serif, droid-sans, helvetica, verdana, tahoma" viewbox="0 0 600 276" width="600" height="276" preserveAspectRatio="xMinYMin meet"><rect x="0" y="0" width="600" height="276" fill="#FEFEFE" stroke="#757575" stroke-width="2"/><g stroke="#757575" stroke-width="1"><line x1="80.5" y1="64" x2="80.5" y2="203"/><line x1="80" y1="202.5" x2="586" y2="202.5"/></g><a xlink:href="http://www.phoronix-test-suite.com/" xlink:show="new"><text x="585" y="59" font-size="7" fill="#065695" text-anchor="end" xlink:show="new">PHORONIX-TEST-SUITE.COM</text></a><polygon points="80.5,56 89.5,60.5 89.5,51.5" fill="#065695" stroke="#949494" stroke-width="1"/><text x="92" y="59" font-size="7" fill="#065695" text-anchor="start">Seconds, Less Is Better</text><rect x="0" y="0" width="600" height="48" fill="#231f20"/><a xlink:href="http://openbenchmarking.org/test/pts/sqlite-1.9.0" xlink:show="new"><text x="6" y="19" font-size="17" fill="#FEFEFE" text-anchor="start" xlink:show="new">SQLite v3.8.10.2</text></a><text x="6" y="36" font-size="11" fill="#FEFEFE" text-anchor="start">Test Target: /mnt/mdadm_raid</text><path d="m74 22v9m-5-16v16m-5-28v28m-23-2h12.5c2.485281 0 4.5-2.014719 4.5-4.5s-2.014719-4.5-4.5-4.5h-8c-2.485281 0-4.5-2.014719-4.5-4.5s2.014719-4.5 4.5-4.5h12.5m-21 5h-11m11 13h-2c-4.970563 0-9-4.029437-9-9v-20m-24 40v-20c0-4.970563 4.0294373-9 9-9 4.970563 0 9 4.029437 9 9s-4.029437 9-9 9h-9" stroke="#ffffff" stroke-width="4" fill="none" transform="translate(508,4)"/><line x1="80.5" y1="110" x2="80.5" y2="202" stroke="#757575" stroke-width="11" stroke-dasharray="1,45"/><g font-size="10" fill="#231f20"><text x="75" y="85" text-anchor="end">MDADM RAID0</text><text x="75" y="131" text-anchor="end">MDADM RAID1</text><text x="75" y="177" text-anchor="end">MDADM RAID5</text></g><g font-size="10" fill="#065695" text-anchor="middle"><text x="166.5" y="217">100</text><text x="250.5" y="217">200</text><text x="334.5" y="217">300</text><text x="418.5" y="217">400</text><text x="502.5" y="217">500</text></g><g stroke="#BABABA" stroke-width="1"><line x1="166.5" y1="64" x2="166.5" y2="197" stroke-dasharray="5,5"/><line x1="166.5" y1="198" x2="166.5" y2="207"/><line x1="250.5" y1="64" x2="250.5" y2="197" stroke-dasharray="5,5"/><line x1="250.5" y1="198" x2="250.5" y2="207"/><line x1="334.5" y1="64" x2="334.5" y2="197" stroke-dasharray="5,5"/><line x1="334.5" y1="198" x2="334.5" y2="207"/><line x1="418.5" y1="64" x2="418.5" y2="197" stroke-dasharray="5,5"/><line x1="418.5" y1="198" x2="418.5" y2="207"/><line x1="502.5" y1="64" x2="502.5" y2="197" stroke-dasharray="5,5"/><line x1="502.5" y1="198" x2="502.5" y2="207"/></g><g stroke="#949494" stroke-width="1"><rect x="80.5" y="70.5" height="34" width="249" fill="#2196f3" xlink:title="MDADM RAID0: 295.50"/><rect x="80.5" y="116.5" height="34" width="374" fill="#2196f3" xlink:title="MDADM RAID1: 444.29"/><rect x="80.5" y="162.5" height="34" width="401" fill="#2196f3" xlink:title="MDADM RAID5: 476.32"/></g><g font-size="8" fill="#065695" text-anchor="end"><text y="101" x="75">SE +/- 4.05</text><text y="147" x="75">SE +/- 2.14</text><text y="193" x="75">SE +/- 2.74</text></g><g font-size="10" fill="#FFFFFF"><text x="324" y="93" text-anchor="end">295.50</text><text x="449" y="139" text-anchor="end">444.29</text><text x="476" y="185" text-anchor="end">476.32</text></g><rect x="0" y="224" width="600" height="52" fill="#231f20"/><a xlink:href="http://www.phoronix-test-suite.com/" xlink:show="new"><text x="585" y="236" font-size="9" fill="#FEFEFE" text-anchor="end" xlink:show="new">Phoronix Test Suite 6.6.0</text></a><text x="5" y="250" font-size="8" fill="#FEFEFE" text-anchor="start" xlink:title="-O2 -ldl -lpthread" width="595">1. (CC) gcc options: -O2 -ldl -lpthread</text></svg>
