<?xml version="1.0"?>
<!DOCTYPE svg PUBLIC "-//W3C//DTD SVG 1.1//EN" "http://www.w3.org/Graphics/SVG/1.1/DTD/svg11.dtd">
<!--Phoronix Test Suite v6.6.0 [ http://www.phoronix-test-suite.com/ ]-->
<svg xmlns="http://www.w3.org/2000/svg" xmlns:xlink="http://www.w3.org/1999/xlink" version="1.1" font-family="sans-serif, droid-sans, helvetica, verdana, tahoma" viewbox="0 0 1162 121" width="1162" height="121" preserveAspectRatio="xMinYMin meet"><rect x="0" y="0" width="1162" height="121" fill="#FEFEFE" stroke="#757575" stroke-width="2"/><rect x="1" y="1" width="1161" height="120" fill="#FEFEFE" stroke="#757575" stroke-width="1"/><path d="m74 22v9m-5-16v16m-5-28v28m-23-2h12.5c2.485281 0 4.5-2.014719 4.5-4.5s-2.014719-4.5-4.5-4.5h-8c-2.485281 0-4.5-2.014719-4.5-4.5s2.014719-4.5 4.5-4.5h12.5m-21 5h-11m11 13h-2c-4.970563 0-9-4.029437-9-9v-20m-24 40v-20c0-4.970563 4.0294373-9 9-9 4.970563 0 9 4.029437 9 9s-4.029437 9-9 9h-9" stroke="#000000" stroke-width="4" fill="none" transform="translate(121,28)"/><line x1="322" y1="65" x2="1162" y2="65" stroke="#BABABA" stroke-width="80" stroke-dasharray="140,140"/><line x1="581" y1="73" x2="581" y2="105" stroke="#949494" stroke-width="1162" stroke-dasharray="16,16"/><line x1="322" y1="65" x2="1162" y2="65" stroke="#757575" stroke-width="80" stroke-dasharray="1,139"/><rect x="1" y="1" width="1160" height="25" fill="#231f20"/><text x="5" y="19" font-size="17" fill="#FEFEFE" text-anchor="start">mdadm-xfs-raid0-sqlite</text><line x1="1" y1="25" x2="1161" y2="25" stroke="#757575" stroke-width="1"/><g font-size="10" font-weight="bold" text-anchor="end" fill="#065695"><a xlink:href="http://openbenchmarking.org/test/pts/sqlite-1.9.0" xlink:show="new"><text x="320" y="85" fill="#065695">sqlite: Test Target: /mnt/mdadm_raid</text></a><a xlink:href="http://openbenchmarking.org/test/pts/sqlite-1.9.0" xlink:show="new"><text x="320" y="101" fill="#065695">sqlite: Test Target: Default Test Directory</text></a></g><g font-size="10" fill="#065695" font-weight="bold" text-anchor="middle" dominant-baseline="text-before-edge"><text x="392" y="49">MDADM RAID0</text><text x="532" y="49">MDADM RAID1</text><text x="672" y="49">MDADM RAID5</text><text x="812" y="49">ZFS Stripe (RAID0)</text><text x="952" y="49">ZFS Mirror (RAID1)</text><text x="1092" y="49">ZFS RAID-Z (RAID5)</text></g><g/><g text-anchor="middle" font-size="10"><text x="392" y="86" fill="#005a00" xlink:title="STD Dev: 3.36%;  STD Error: 4.05">295.50</text><text x="532" y="86" fill="#065695" xlink:title="STD Dev: 0.83%;  STD Error: 2.14">444.29</text><text x="672" y="86" fill="#C80000" xlink:title="STD Dev: 1.00%;  STD Error: 2.74">476.32</text><text x="812" y="102" fill="#005a00" xlink:title="STD Dev: 0.87%;  STD Error: 0.77">154.36</text><text x="952" y="102" fill="#065695" xlink:title="STD Dev: 1.89%;  STD Error: 2.52">230.29</text><text x="1092" y="102" fill="#C80000" xlink:title="STD Dev: 0.51%;  STD Error: 0.80">273.47</text></g><line x1="581" y1="73" x2="581" y2="105" stroke="#949494" stroke-width="1162" stroke-dasharray="1,15"/><rect x="0" y="105" width="1162" height="16" fill="#231f20"/><a xlink:href="http://www.phoronix-test-suite.com/" xlink:show="new"><text x="1160" y="118" font-size="10" fill="#FFFFFF" text-anchor="end" xlink:show="new">PHORONIX-TEST-SUITE.COM</text></a></svg>
